<svg xmlns="http://www.w3.org/2000/svg" viewBox="0 0 900 434" width="900" height="434" role="img" aria-label="Lugalay">
  <rect width="900" height="434" rx="26" fill="#0b1519"/>
  <rect x="1" y="1" width="898" height="432" rx="25" fill="none" stroke="#39d0d8" stroke-opacity=".14"/>
  <g transform="translate(30,30)">
  <ellipse cx="187.0" cy="231.88" rx="157.07999999999998" ry="127.16000000000001" fill="#39d0d8" opacity=".10"/>
  <rect x="110" y="33" width="154" height="11" fill="#33261f"/>
  <rect x="99" y="44" width="33" height="11" fill="#33261f"/>
  <rect x="132" y="44" width="77" height="11" fill="#4a382f"/>
  <rect x="209" y="44" width="66" height="11" fill="#33261f"/>
  <rect x="99" y="55" width="176" height="11" fill="#33261f"/>
  <rect x="88" y="66" width="198" height="11" fill="#33261f"/>
  <rect x="88" y="77" width="198" height="11" fill="#33261f"/>
  <rect x="88" y="88" width="198" height="11" fill="#33261f"/>
  <rect x="88" y="99" width="198" height="11" fill="#33261f"/>
  <rect x="88" y="110" width="198" height="11" fill="#33261f"/>
  <rect x="88" y="121" width="22" height="11" fill="#33261f"/>
  <rect x="110" y="121" width="154" height="11" fill="#d9a279"/>
  <rect x="264" y="121" width="22" height="11" fill="#33261f"/>
  <rect x="88" y="132" width="22" height="11" fill="#33261f"/>
  <rect x="110" y="132" width="11" height="11" fill="#d9a279"/>
  <rect x="121" y="132" width="44" height="11" fill="#33261f"/>
  <rect x="165" y="132" width="44" height="11" fill="#d9a279"/>
  <rect x="209" y="132" width="44" height="11" fill="#33261f"/>
  <rect x="253" y="132" width="11" height="11" fill="#d9a279"/>
  <rect x="264" y="132" width="22" height="11" fill="#33261f"/>
  <rect x="88" y="143" width="22" height="11" fill="#33261f"/>
  <rect x="110" y="143" width="154" height="11" fill="#d9a279"/>
  <rect x="264" y="143" width="22" height="11" fill="#33261f"/>
  <rect x="99" y="154" width="22" height="11" fill="#d9a279"/>
  <rect x="121" y="154" width="44" height="11" fill="#f4f8f9"/>
  <rect x="165" y="154" width="44" height="11" fill="#d9a279"/>
  <rect x="209" y="154" width="44" height="11" fill="#f4f8f9"/>
  <rect x="253" y="154" width="22" height="11" fill="#d9a279"/>
  <rect x="77" y="165" width="44" height="11" fill="#d9a279"/>
  <rect x="121" y="165" width="22" height="11" fill="#f4f8f9"/>
  <rect x="143" y="165" width="11" height="11" fill="#20141a"/>
  <rect x="154" y="165" width="11" height="11" fill="#f4f8f9"/>
  <rect x="165" y="165" width="44" height="11" fill="#d9a279"/>
  <rect x="209" y="165" width="22" height="11" fill="#f4f8f9"/>
  <rect x="231" y="165" width="11" height="11" fill="#20141a"/>
  <rect x="242" y="165" width="11" height="11" fill="#f4f8f9"/>
  <rect x="253" y="165" width="44" height="11" fill="#d9a279"/>
  <rect x="77" y="176" width="11" height="11" fill="#d9a279"/>
  <rect x="88" y="176" width="11" height="11" fill="#b8825c"/>
  <rect x="99" y="176" width="22" height="11" fill="#d9a279"/>
  <rect x="121" y="176" width="11" height="11" fill="#f4f8f9"/>
  <rect x="132" y="176" width="22" height="11" fill="#20141a"/>
  <rect x="154" y="176" width="11" height="11" fill="#f4f8f9"/>
  <rect x="165" y="176" width="44" height="11" fill="#d9a279"/>
  <rect x="209" y="176" width="11" height="11" fill="#f4f8f9"/>
  <rect x="220" y="176" width="22" height="11" fill="#20141a"/>
  <rect x="242" y="176" width="11" height="11" fill="#f4f8f9"/>
  <rect x="253" y="176" width="22" height="11" fill="#d9a279"/>
  <rect x="275" y="176" width="11" height="11" fill="#b8825c"/>
  <rect x="286" y="176" width="11" height="11" fill="#d9a279"/>
  <rect x="77" y="187" width="11" height="11" fill="#d9a279"/>
  <rect x="88" y="187" width="11" height="11" fill="#b8825c"/>
  <rect x="99" y="187" width="22" height="11" fill="#d9a279"/>
  <rect x="121" y="187" width="44" height="11" fill="#f4f8f9"/>
  <rect x="165" y="187" width="44" height="11" fill="#d9a279"/>
  <rect x="209" y="187" width="44" height="11" fill="#f4f8f9"/>
  <rect x="253" y="187" width="22" height="11" fill="#d9a279"/>
  <rect x="275" y="187" width="11" height="11" fill="#b8825c"/>
  <rect x="286" y="187" width="11" height="11" fill="#d9a279"/>
  <rect x="77" y="198" width="99" height="11" fill="#d9a279"/>
  <rect x="176" y="198" width="22" height="11" fill="#b8825c"/>
  <rect x="198" y="198" width="99" height="11" fill="#d9a279"/>
  <rect x="99" y="209" width="11" height="11" fill="#d9a279"/>
  <rect x="110" y="209" width="33" height="11" fill="#e0664f"/>
  <rect x="143" y="209" width="33" height="11" fill="#d9a279"/>
  <rect x="176" y="209" width="22" height="11" fill="#b8825c"/>
  <rect x="198" y="209" width="33" height="11" fill="#d9a279"/>
  <rect x="231" y="209" width="33" height="11" fill="#e0664f"/>
  <rect x="264" y="209" width="11" height="11" fill="#d9a279"/>
  <rect x="99" y="220" width="11" height="11" fill="#d9a279"/>
  <rect x="110" y="220" width="33" height="11" fill="#e0664f"/>
  <rect x="143" y="220" width="22" height="11" fill="#d9a279"/>
  <rect x="165" y="220" width="44" height="11" fill="#b8825c"/>
  <rect x="209" y="220" width="22" height="11" fill="#d9a279"/>
  <rect x="231" y="220" width="33" height="11" fill="#e0664f"/>
  <rect x="264" y="220" width="11" height="11" fill="#d9a279"/>
  <rect x="99" y="231" width="44" height="11" fill="#d9a279"/>
  <rect x="143" y="231" width="11" height="11" fill="#20141a"/>
  <rect x="154" y="231" width="66" height="11" fill="#d9a279"/>
  <rect x="220" y="231" width="11" height="11" fill="#20141a"/>
  <rect x="231" y="231" width="44" height="11" fill="#d9a279"/>
  <rect x="99" y="242" width="55" height="11" fill="#d9a279"/>
  <rect x="154" y="242" width="66" height="11" fill="#20141a"/>
  <rect x="220" y="242" width="55" height="11" fill="#d9a279"/>
  <rect x="99" y="253" width="176" height="11" fill="#d9a279"/>
  <rect x="99" y="264" width="176" height="11" fill="#d9a279"/>
  <rect x="99" y="275" width="176" height="11" fill="#d9a279"/>
  <rect x="110" y="286" width="154" height="11" fill="#d9a279"/>
  <rect x="66" y="297" width="88" height="11" fill="#2d606c"/>
  <rect x="154" y="297" width="66" height="11" fill="#b8825c"/>
  <rect x="220" y="297" width="88" height="11" fill="#2d606c"/>
  <rect x="44" y="308" width="286" height="11" fill="#2d606c"/>
  <rect x="44" y="319" width="286" height="11" fill="#2d606c"/>
  <rect x="44" y="330" width="286" height="11" fill="#2d606c"/>
  <rect x="44" y="341" width="286" height="11" fill="#2d606c"/>
  <rect x="44" y="352" width="286" height="11" fill="#2d606c"/>
  <rect x="44" y="363" width="286" height="11" fill="#2d606c"/>
  </g>
  <text x="450" y="182.28" font-family="ui-monospace,'SF Mono',Menlo,Consolas,'DejaVu Sans Mono',monospace" font-size="76" font-weight="700" letter-spacing="4" fill="#f4f8f9">Lugalay</text>
  <text x="454" y="238.70000000000002" font-family="ui-monospace,'SF Mono',Menlo,Consolas,'DejaVu Sans Mono',monospace" font-size="21" letter-spacing="3.4" fill="#39d0d8" fill-opacity=".85">A PERSONAL AI THAT LISTENS</text>
  <text x="454" y="295.12" font-family="ui-monospace,'SF Mono',Menlo,Consolas,'DejaVu Sans Mono',monospace" font-size="18" letter-spacing="1.2" fill="#f4f8f9" fill-opacity=".45">voice · memory · a face · hands</text>
  <rect x="454" y="325.5" width="150" height="3" rx="1.5" fill="#39d0d8" opacity=".55"/>
</svg>
